<svg id="049aa1a8-678e-424c-8a1b-02aa57ff4d0f" data-name="Layer 1" xmlns="http://www.w3.org/2000/svg" xmlns:xlink="http://www.w3.org/1999/xlink" viewBox="0 0 127.56 127.56"><defs><style>.\33 9a55a08-6bc0-456d-8f16-058d4b51f6d9{fill:url(#e84d2648-df91-4e23-be48-9b8036952569);}.c2909371-eeeb-4e47-b648-a39aa8a755f0{fill:url(#322b6330-c4d3-4548-977b-8f0e399713e0);}.\34 ffc9e31-7017-4a9b-85c6-c23ddc49a258{fill:url(#edaaf176-7f31-4cc7-a8ee-aa4f7526ee33);}.\30 d4386a7-ff70-4e4a-93b9-2fea2ef3a71f{fill:url(#cf95a9b0-4cfe-4a29-8c1c-bd1efaf92520);}.e4eaec1e-a4b9-4d73-9e6e-907721bb2a03{fill:url(#a48c0f34-b28e-426c-b960-ba6068f9a857);}.\35 0423ddd-0a0e-4883-8e3a-8dd6614cf825{fill:url(#6aabd33b-6967-4b0a-8b20-be9b5141d730);}</style><linearGradient id="e84d2648-df91-4e23-be48-9b8036952569" x1="666.61" y1="-2189.32" x2="674.6" y2="-2214.62" gradientTransform="translate(679.62 2244.82) rotate(-32.87)" gradientUnits="userSpaceOnUse"><stop offset="0" stop-color="#48a6f0"/><stop offset="1" stop-color="#3f91d4"/></linearGradient><linearGradient id="322b6330-c4d3-4548-977b-8f0e399713e0" x1="640.88" y1="-2185.38" x2="639.22" y2="-2208.35" xlink:href="#e84d2648-df91-4e23-be48-9b8036952569"/><linearGradient id="edaaf176-7f31-4cc7-a8ee-aa4f7526ee33" x1="106.59" y1="-2551.18" x2="114.58" y2="-2576.48" gradientTransform="matrix(-0.84, -0.54, -0.54, 0.84, -1218.8, 2244.82)" xlink:href="#e84d2648-df91-4e23-be48-9b8036952569"/><linearGradient id="cf95a9b0-4cfe-4a29-8c1c-bd1efaf92520" x1="80.86" y1="-2547.23" x2="79.2" y2="-2570.21" gradientTransform="matrix(-0.84, -0.54, -0.54, 0.84, -1218.8, 2244.82)" xlink:href="#e84d2648-df91-4e23-be48-9b8036952569"/><linearGradient id="a48c0f34-b28e-426c-b960-ba6068f9a857" x1="63.84" y1="77.04" x2="63.84" y2="104.69" gradientUnits="userSpaceOnUse"><stop offset="0" stop-color="#ef6565"/><stop offset="1" stop-color="#ed5859"/></linearGradient><linearGradient id="6aabd33b-6967-4b0a-8b20-be9b5141d730" x1="63.78" y1="60.64" x2="63.78" y2="109.14" gradientTransform="matrix(1, 0, 0, 1, 0, 0)" xlink:href="#e84d2648-df91-4e23-be48-9b8036952569"/></defs><title>logo_icon_v3</title><path class="39a55a08-6bc0-456d-8f16-058d4b51f6d9" d="M49.63,12.57c9.07,5.22,12.63,21.71,6.54,30.32C53.23,47,49,48,44.69,45.49c-8.86-5.12-12.57-21.62-6.77-30.08C40.9,11,45.19,10,49.63,12.57Z"/><path class="c2909371-eeeb-4e47-b648-a39aa8a755f0" d="M21.3,62c-5.68-3.9-10-11.81-8.66-18.85a7.8,7.8,0,0,1,5.68-6.25c3-.71,5.77.75,8.06,2.48,5.47,4.14,9.92,11.62,8.44,18.73a7.83,7.83,0,0,1-5.34,6C26.6,65,23.71,63.51,21.3,62,16.46,58.71,25.07,64.36,21.3,62Z"/><path class="4ffc9e31-7017-4a9b-85c6-c23ddc49a258" d="M77.93,12.57c-9.07,5.22-12.63,21.71-6.54,30.32C74.33,47,78.53,48,82.87,45.49c8.86-5.12,12.57-21.62,6.77-30.08C86.66,11,82.37,10,77.93,12.57Z"/><path class="0d4386a7-ff70-4e4a-93b9-2fea2ef3a71f" d="M106.26,62c5.67-3.9,10-11.81,8.65-18.85a7.8,7.8,0,0,0-5.68-6.25c-2.95-.71-5.77.75-8.06,2.48C95.7,43.57,91.25,51,92.73,58.16a7.83,7.83,0,0,0,5.35,6c2.89,0.81,5.78-.65,8.18-2.13C111.1,58.71,102.49,64.36,106.26,62Z"/><path class="e4eaec1e-a4b9-4d73-9e6e-907721bb2a03" d="M80.77,97.7C84.29,93,87.53,86.63,87,80.6c-0.22-2.72-1.45-5.76-4.12-6.85a9.07,9.07,0,0,0-3.45-.62,22.49,22.49,0,0,0-5.77,1,41.59,41.59,0,0,1-9.85,1.65A41.59,41.59,0,0,1,54,74.09a22.45,22.45,0,0,0-5.77-1,9,9,0,0,0-3.45.62c-2.67,1.09-3.9,4.13-4.12,6.85-0.49,6,2.75,12.42,6.27,17.1a44.73,44.73,0,0,0,7.65,7.75c2.54,2,5.76,4.33,9.18,4.33h0.19c3.42,0,6.65-2.29,9.18-4.33A44.52,44.52,0,0,0,80.77,97.7Z"/><path class="50423ddd-0a0e-4883-8e3a-8dd6614cf825" d="M94.63,71.59A81.62,81.62,0,0,0,80.69,57.47c-4.62-3.74-10.5-7.9-16.73-7.9H63.61c-6.23,0-12.11,4.16-16.73,7.9A81.48,81.48,0,0,0,32.93,71.59c-6.41,8.54-12.32,20.18-11.43,31.17,0.4,5,2.64,10.5,7.51,12.48,5.28,2.15,11.51.82,16.81-.62a93.37,93.37,0,0,1,11.32-2.43A31,31,0,0,1,52,108.68a48.72,48.72,0,0,1-8.36-8.48c-2.93-3.9-7.76-11.69-7.09-19.93a14.49,14.49,0,0,1,1.63-5.67,10.13,10.13,0,0,1,5.06-4.68,13.23,13.23,0,0,1,5-.93,26.38,26.38,0,0,1,6.86,1.11,37.23,37.23,0,0,0,8.77,1.5,37.19,37.19,0,0,0,8.77-1.5A26.43,26.43,0,0,1,79.47,69h0a13.24,13.24,0,0,1,5,.93c3.79,1.54,6.29,5.41,6.69,10.35,0.67,8.24-4.15,16-7.09,19.93a48.52,48.52,0,0,1-8.36,8.48,30.58,30.58,0,0,1-5.21,3.53,93.84,93.84,0,0,1,11.22,2.42c5.3,1.44,11.53,2.77,16.81.62,4.86-2,7.11-7.52,7.51-12.48C107,91.77,101,80.13,94.63,71.59Z"/></svg>