<svg id="107a900b-0bcf-4490-ad22-ff7cf51e938d" data-name="Layer 1" xmlns="http://www.w3.org/2000/svg" xmlns:xlink="http://www.w3.org/1999/xlink" viewBox="0 0 107.72 107.72"><defs><style>.\32 bd97ce7-7952-4b55-b47a-250501e0bd93{fill:url(#890a7673-b12f-4d96-b93b-17c658cdf65e);}.\35 eaef422-0a55-4ccc-926c-6d6212ebd7c3{fill:url(#00baeaa0-30b9-4ae6-8865-a2fda3a606bd);}.\37 2ca4faf-6a8d-4d67-8473-13744d78aaac{fill:url(#1414f316-b563-4f3d-ac79-2a96b2ab9e0e);}.\33 289e615-7a73-476b-9398-796623ada20c{fill:url(#48b1c127-3b36-4e67-8b64-e7d1ff3008a3);}.b0a54830-1a77-405b-a10c-8bec37ea1b11{fill:url(#e810614c-9233-46e3-a8a3-1cb65294bfc2);}.d923170c-b0b2-48d1-a986-c33cabdff694{fill:url(#3f4c24f4-bdb9-4680-8866-3bf2eb79581c);}</style><linearGradient id="890a7673-b12f-4d96-b93b-17c658cdf65e" x1="656.69" y1="-2199.24" x2="664.68" y2="-2224.54" gradientTransform="translate(683.42 2237.85) rotate(-32.87)" gradientUnits="userSpaceOnUse"><stop offset="0" stop-color="#48a6f0"/><stop offset="1" stop-color="#3f91d4"/></linearGradient><linearGradient id="00baeaa0-30b9-4ae6-8865-a2fda3a606bd" x1="630.96" y1="-2195.3" x2="629.3" y2="-2218.27" xlink:href="#890a7673-b12f-4d96-b93b-17c658cdf65e"/><linearGradient id="1414f316-b563-4f3d-ac79-2a96b2ab9e0e" x1="96.67" y1="-2561.1" x2="104.66" y2="-2586.4" gradientTransform="matrix(-0.84, -0.54, -0.54, 0.84, -1242.43, 2237.85)" xlink:href="#890a7673-b12f-4d96-b93b-17c658cdf65e"/><linearGradient id="48b1c127-3b36-4e67-8b64-e7d1ff3008a3" x1="70.94" y1="-2557.16" x2="69.28" y2="-2580.13" gradientTransform="matrix(-0.84, -0.54, -0.54, 0.84, -1242.43, 2237.85)" xlink:href="#890a7673-b12f-4d96-b93b-17c658cdf65e"/><linearGradient id="e810614c-9233-46e3-a8a3-1cb65294bfc2" x1="53.92" y1="67.12" x2="53.92" y2="94.77" gradientUnits="userSpaceOnUse"><stop offset="0" stop-color="#ef6565"/><stop offset="1" stop-color="#ed5859"/></linearGradient><linearGradient id="3f4c24f4-bdb9-4680-8866-3bf2eb79581c" x1="53.86" y1="50.71" x2="53.86" y2="99.22" gradientTransform="matrix(1, 0, 0, 1, 0, 0)" xlink:href="#890a7673-b12f-4d96-b93b-17c658cdf65e"/></defs><title>logo_icon_v3-minborder</title><path class="2bd97ce7-7952-4b55-b47a-250501e0bd93" d="M39.71,2.64C48.78,7.87,52.34,24.35,46.25,33c-2.94,4.15-7.14,5.11-11.48,2.6C25.91,30.44,22.19,13.94,28,5.48,31,1.13,35.27.09,39.71,2.64Z"/><path class="5eaef422-0a55-4ccc-926c-6d6212ebd7c3" d="M11.38,52.12c-5.68-3.9-10-11.81-8.66-18.85A7.8,7.8,0,0,1,8.41,27c3-.71,5.77.75,8.06,2.48,5.47,4.14,9.92,11.62,8.44,18.73a7.83,7.83,0,0,1-5.34,6c-2.89.81-5.78-.65-8.18-2.13C6.54,48.79,15.15,54.43,11.38,52.12Z"/><path class="72ca4faf-6a8d-4d67-8473-13744d78aaac" d="M68,2.64C58.94,7.87,55.38,24.35,61.47,33c2.94,4.15,7.14,5.11,11.48,2.6,8.86-5.12,12.57-21.62,6.77-30.08C76.74,1.13,72.45.09,68,2.64Z"/><path class="3289e615-7a73-476b-9398-796623ada20c" d="M96.33,52.12c5.67-3.9,10-11.81,8.65-18.85A7.8,7.8,0,0,0,99.31,27c-2.95-.71-5.77.75-8.06,2.48-5.47,4.14-9.91,11.62-8.44,18.73a7.83,7.83,0,0,0,5.35,6c2.89,0.81,5.78-.65,8.18-2.13C101.18,48.79,92.57,54.43,96.33,52.12Z"/><path class="b0a54830-1a77-405b-a10c-8bec37ea1b11" d="M70.85,87.78c3.52-4.68,6.76-11.07,6.27-17.1C76.9,68,75.67,64.92,73,63.83a9.07,9.07,0,0,0-3.45-.62,22.49,22.49,0,0,0-5.77,1,41.59,41.59,0,0,1-9.85,1.65,41.59,41.59,0,0,1-9.85-1.65,22.45,22.45,0,0,0-5.77-1,9,9,0,0,0-3.45.62c-2.67,1.09-3.9,4.13-4.12,6.85-0.49,6,2.75,12.42,6.27,17.1a44.73,44.73,0,0,0,7.65,7.75c2.54,2,5.76,4.33,9.18,4.33H54c3.42,0,6.65-2.29,9.18-4.33A44.52,44.52,0,0,0,70.85,87.78Z"/><path class="d923170c-b0b2-48d1-a986-c33cabdff694" d="M84.71,61.67A81.62,81.62,0,0,0,70.77,47.55c-4.62-3.74-10.5-7.9-16.73-7.9H53.68c-6.23,0-12.11,4.16-16.73,7.9A81.48,81.48,0,0,0,23,61.67c-6.41,8.54-12.32,20.18-11.43,31.17,0.4,5,2.64,10.5,7.51,12.48,5.28,2.15,11.51.82,16.81-.62a93.37,93.37,0,0,1,11.32-2.43A31,31,0,0,1,42,98.76a48.72,48.72,0,0,1-8.36-8.48c-2.93-3.9-7.76-11.69-7.09-19.93a14.49,14.49,0,0,1,1.63-5.67A10.13,10.13,0,0,1,33.28,60a13.23,13.23,0,0,1,5-.93,26.38,26.38,0,0,1,6.86,1.11,37.23,37.23,0,0,0,8.77,1.5,37.19,37.19,0,0,0,8.77-1.5,26.43,26.43,0,0,1,6.86-1.11h0a13.24,13.24,0,0,1,5,.93c3.79,1.54,6.29,5.41,6.69,10.35,0.67,8.24-4.15,16-7.09,19.93a48.52,48.52,0,0,1-8.36,8.48,30.58,30.58,0,0,1-5.21,3.53,93.84,93.84,0,0,1,11.22,2.42c5.3,1.44,11.53,2.77,16.81.62,4.86-2,7.11-7.52,7.51-12.48C97,81.85,91.12,70.21,84.71,61.67Z"/></svg>